<?xml version="1.0" encoding="utf-8"?>
<!-- Generator: Adobe Illustrator 19.0.0, SVG Export Plug-In . SVG Version: 6.00 Build 0)  -->
<svg version="1.1" xmlns="http://www.w3.org/2000/svg" xmlns:xlink="http://www.w3.org/1999/xlink" x="0px" y="0px"
	 viewBox="-243 45 472 472" style="enable-background:new -243 45 472 472;" xml:space="preserve">
<style type="text/css">
	.st0{fill:#AFB1B8;}
	.st1{fill:#D3D4D9;}
	.st2{fill:#F0CE37;}
	.st3{fill:#CFAC30;}
	.st4{opacity:0.46;}
	.st5{fill:#FFD00B;}
</style>
<g id="Capa_1">
	<path class="st0" d="M149,461c-5.6,0-11.3-0.3-16.9-1l1.9-15.9c5,0.6,10,0.9,15,0.9V461z M115.4,457.1c-5.5-1.3-10.9-3-16.2-4.9
		l5.5-15c4.7,1.7,9.6,3.2,14.4,4.4L115.4,457.1z M83.7,445.4c-5-2.6-9.9-5.4-14.6-8.6l8.9-13.3c4.1,2.8,8.5,5.3,13,7.6L83.7,445.4z
		 M55.6,426.6c-4.3-3.6-8.4-7.6-12.2-11.7L55.1,404c3.4,3.7,7.1,7.2,10.9,10.4L55.6,426.6z M32.6,401.8c-3.3-4.6-6.4-9.4-9.2-14.2
		l13.9-7.9c2.4,4.3,5.2,8.6,8.1,12.7L32.6,401.8z M16,372.4c-2.2-5.2-4.1-10.6-5.6-16l15.4-4.4c1.4,4.8,3,9.6,5,14.2L16,372.4z
		 M6.8,339.9c-0.9-5.6-1.5-11.2-1.7-16.8l16-0.6c0.2,5,0.7,10,1.5,15L6.8,339.9z M21.4,307.3l-16-1.2c0.4-5.7,1.2-11.3,2.3-16.8
		l15.7,3.1C22.4,297.3,21.7,302.3,21.4,307.3z M27.1,277.8l-15.2-4.9c1.7-5.3,3.8-10.6,6.1-15.8l14.6,6.6
		C30.5,268.4,28.6,273.1,27.1,277.8z M39.6,250.5l-13.7-8.3c2.9-4.8,6.2-9.5,9.6-13.9l12.6,9.9C45.1,242.1,42.2,246.2,39.6,250.5z
		 M58.1,226.8l-11.4-11.3c3.9-4,8.2-7.8,12.6-11.3l10,12.5C65.4,219.9,61.6,223.3,58.1,226.8z M81.6,208.1l-8.4-13.6
		c4.8-3,9.8-5.7,14.9-8.1l6.8,14.5C90.4,203.1,85.9,205.5,81.6,208.1z M108.8,195.4l-5-15.2c5.3-1.8,10.9-3.2,16.4-4.3l3.2,15.7
		C118.5,192.6,113.6,193.9,108.8,195.4z M138.3,189.4l-1.3-15.9c4-0.3,8-0.5,12.1-0.5v16C145.4,189,141.8,189.2,138.3,189.4z"/>
	<path class="st1" d="M37,397v-32c0-4.4-3.6-8-8-8H-0.2c-3.5,0-6.6-2.4-7.6-5.7c-1.5-4.7-3.4-9.3-5.7-13.7c-1.6-3.2-1.2-7,1.4-9.5
		l20.6-20.6c3.1-3.1,3.1-8.2,0-11.3l-22.6-22.6c-3.1-3.1-8.2-3.1-11.3,0l-20.6,20.6c-2.5,2.5-6.3,3-9.5,1.4c-4.4-2.2-9-4.1-13.7-5.7
		c-3.4-1.1-5.7-4.1-5.7-7.6V253c0-4.4-3.6-8-8-8h-32c-4.4,0-8,3.6-8,8v29.2c0,3.5-2.4,6.6-5.7,7.6c-4.7,1.5-9.3,3.4-13.7,5.7
		c-3.2,1.6-7,1.2-9.5-1.4l-20.6-20.6c-3.1-3.1-8.2-3.1-11.3,0l-22.6,22.6c-3.1,3.1-3.1,8.2,0,11.3l20.6,20.6c2.5,2.5,3,6.3,1.4,9.5
		c-2.2,4.4-4.1,9-5.7,13.7c-1.1,3.4-4.1,5.7-7.6,5.7H-227c-4.4,0-8,3.6-8,8v32c0,4.4,3.6,8,8,8h29.2c3.5,0,6.6,2.4,7.6,5.7
		c1.5,4.7,3.4,9.3,5.7,13.7c1.6,3.2,1.2,7-1.4,9.5l-20.6,20.6c-3.1,3.1-3.1,8.2,0,11.3l22.6,22.6c3.1,3.1,8.2,3.1,11.3,0l20.6-20.6
		c2.5-2.5,6.3-3,9.5-1.4c4.4,2.2,9,4.1,13.7,5.7c3.4,1.1,5.7,4.1,5.7,7.6V509c0,4.4,3.6,8,8,8h32c4.4,0,8-3.6,8-8v-29.2
		c0-3.5,2.4-6.6,5.7-7.6c4.7-1.5,9.3-3.4,13.7-5.7c3.2-1.6,7-1.2,9.5,1.4l20.6,20.6c3.1,3.1,8.2,3.1,11.3,0l22.6-22.6
		c3.1-3.1,3.1-8.2,0-11.3l-20.6-20.6c-2.5-2.5-3-6.3-1.4-9.5c2.2-4.4,4.1-9,5.7-13.7c1.1-3.4,4.1-5.7,7.6-5.7H29
		C33.4,405,37,401.4,37,397z M-65,416.9c-50.5,37.3-107.3-19.4-69.9-69.9c0.5-0.7,1.2-1.4,2-2c50.5-37.3,107.3,19.4,69.9,69.9
		C-63.6,415.7-64.3,416.4-65,416.9z"/>
	<path class="st0" d="M221,325v-16c0-4.4-3.6-8-8-8h-6.1c-2.7-6.6-2.9-7.1-5.7-13.7l4.3-4.3c3.1-3.1,3.1-8.2,0-11.3l-11.3-11.3
		c-3.1-3.1-8.2-3.1-11.3,0l-4.3,4.3c-6.6-2.7-7.1-2.9-13.7-5.7V253c0-4.4-3.6-8-8-8h-16c-4.4,0-8,3.6-8,8v6.1
		c-6.6,2.7-7.1,2.9-13.7,5.7l-4.3-4.3c-3.1-3.1-8.2-3.1-11.3,0l-11.3,11.3c-3.1,3.1-3.1,8.2,0,11.3l4.3,4.3
		c-2.7,6.6-2.9,7.1-5.7,13.7H85c-4.4,0-8,3.6-8,8v16c0,4.4,3.6,8,8,8h6.1c2.7,6.6,2.9,7.1,5.7,13.7l-4.3,4.3
		c-3.1,3.1-3.1,8.2,0,11.3l11.3,11.3c3.1,3.1,8.2,3.1,11.3,0l4.3-4.3c6.6,2.7,7.1,2.9,13.7,5.7v6.1c0,4.4,3.6,8,8,8h16
		c4.4,0,8-3.6,8-8v-6.1c6.6-2.7,7.1-2.9,13.7-5.7l4.3,4.3c3.1,3.1,8.2,3.1,11.3,0l11.3-11.3c3.1-3.1,3.1-8.2,0-11.3l-4.3-4.3
		c2.7-6.6,2.9-7.1,5.7-13.7h6.1C217.4,333,221,329.4,221,325z M149,333c-8.8,0-16-7.2-16-16s7.2-16,16-16s16,7.2,16,16
		S157.8,333,149,333z"/>
	<path class="st2" d="M85,165h-1.4C83.6,125,77,53,5,53v-8h-48v8c-72,0-78.6,72-78.6,112h-1.4h-16v32h240v-32H85z"/>
	<g>
		<rect x="-3" y="69" class="st3" width="16" height="72"/>
		<rect x="-51" y="69" class="st3" width="16" height="72"/>
		<rect x="-115" y="165" class="st3" width="192" height="16"/>
	</g>
</g>
<g id="Capa_2">
	<g class="st4">
		<g>
			<polygon class="st5" points="28.4,271.4 -46.4,490.6 -18.9,271.4 			"/>
			<polygon class="st5" points="18.6,197 -22.4,311.2 -69.8,311.2 -53,197 			"/>
		</g>
		<g>
		</g>
		<g>
		</g>
		<g>
		</g>
		<g>
		</g>
		<g>
		</g>
		<g>
		</g>
		<g>
		</g>
		<g>
		</g>
		<g>
		</g>
		<g>
		</g>
		<g>
		</g>
		<g>
		</g>
		<g>
		</g>
		<g>
		</g>
		<g>
		</g>
	</g>
</g>
</svg>
