<?xml version="1.0" encoding="iso-8859-1"?>
<!-- Generator: Adobe Illustrator 19.0.0, SVG Export Plug-In . SVG Version: 6.00 Build 0)  -->
<svg version="1.1" id="Capa_1" xmlns="http://www.w3.org/2000/svg" xmlns:xlink="http://www.w3.org/1999/xlink" x="0px" y="0px"
	 viewBox="0 0 472 472" style="enable-background:new 0 0 472 472;" xml:space="preserve">
<path style="fill:#AFB1B8;" d="M392,416c-5.633,0-11.32-0.332-16.891-0.984l1.859-15.891C381.93,399.707,386.984,400,392,400V416z
	 M358.445,412.07c-5.469-1.301-10.922-2.953-16.227-4.902l5.531-15.016c4.703,1.734,9.555,3.199,14.398,4.355L358.445,412.07z
	 M326.703,400.375c-5.023-2.563-9.945-5.445-14.609-8.57l8.891-13.297c4.148,2.773,8.516,5.332,12.984,7.609L326.703,400.375z
	 M298.609,381.605c-4.281-3.648-8.398-7.594-12.219-11.723l11.734-10.875c3.398,3.672,7.055,7.176,10.859,10.418L298.609,381.605z
	 M275.625,356.824c-3.328-4.563-6.406-9.352-9.156-14.23l13.938-7.852c2.445,4.336,5.188,8.594,8.141,12.652L275.625,356.824z
	 M259.039,327.395c-2.18-5.227-4.055-10.605-5.578-15.992l15.391-4.359c1.352,4.777,3.023,9.555,4.953,14.195L259.039,327.395z
	 M249.805,294.863c-0.891-5.578-1.453-11.242-1.68-16.836l15.984-0.648c0.203,4.973,0.703,10.012,1.492,14.977L249.805,294.863z
	 M264.359,262.313l-15.953-1.18c0.422-5.664,1.18-11.313,2.25-16.789l15.703,3.078C265.406,252.277,264.734,257.289,264.359,262.313
	z M270.102,232.832l-15.234-4.891c1.711-5.324,3.766-10.637,6.117-15.789l14.563,6.641
	C273.453,223.379,271.617,228.102,270.102,232.832z M282.609,205.508l-13.672-8.32c2.93-4.805,6.172-9.488,9.641-13.914
	l12.594,9.859C288.094,197.074,285.211,201.234,282.609,205.508z M301.133,181.844l-11.359-11.258
	c3.938-3.977,8.172-7.777,12.594-11.301l9.969,12.516C308.406,174.934,304.633,178.313,301.133,181.844z M324.641,163.133
	l-8.438-13.594c4.797-2.977,9.805-5.688,14.891-8.063l6.766,14.5C333.352,158.082,328.898,160.492,324.641,163.133z
	 M351.836,150.426l-5.016-15.195c5.344-1.766,10.852-3.227,16.367-4.348l3.188,15.68
	C361.469,147.559,356.578,148.855,351.836,150.426z M381.273,144.445l-1.328-15.945c3.977-0.332,7.992-0.5,12.055-0.5v16
	C388.391,144,384.813,144.152,381.273,144.445z"/>
<path style="fill:#D3D4D9;" d="M280,352v-32c0-4.418-3.582-8-8-8h-29.17c-3.545,0-6.552-2.371-7.649-5.742
	c-1.543-4.743-3.442-9.322-5.672-13.708c-1.607-3.161-1.156-6.963,1.352-9.47l20.619-20.619c3.124-3.124,3.124-8.19,0-11.314
	l-22.628-22.627c-3.124-3.124-8.189-3.124-11.314,0l-20.619,20.619c-2.508,2.508-6.31,2.959-9.471,1.352
	c-4.386-2.23-8.964-4.129-13.707-5.672c-3.371-1.096-5.742-4.104-5.742-7.649V208c0-4.418-3.582-8-8-8h-32c-4.418,0-8,3.582-8,8
	v29.17c0,3.545-2.371,6.552-5.742,7.649c-4.743,1.543-9.322,3.442-13.707,5.672c-3.161,1.607-6.963,1.156-9.471-1.352L70.461,228.52
	c-3.124-3.124-8.189-3.124-11.314,0L36.52,251.147c-3.124,3.124-3.124,8.19,0,11.314l20.619,20.619
	c2.508,2.508,2.959,6.31,1.352,9.47c-2.23,4.386-4.129,8.965-5.672,13.708C51.722,309.629,48.714,312,45.17,312H16
	c-4.418,0-8,3.582-8,8v32c0,4.418,3.582,8,8,8h29.17c3.545,0,6.552,2.371,7.649,5.742c1.543,4.743,3.442,9.322,5.672,13.707
	c1.607,3.161,1.156,6.963-1.352,9.471L36.52,409.539c-3.124,3.124-3.124,8.19,0,11.314l22.628,22.628
	c3.124,3.124,8.19,3.124,11.314,0l20.619-20.619c2.507-2.508,6.309-2.959,9.47-1.352c4.386,2.23,8.964,4.129,13.708,5.672
	c3.371,1.097,5.742,4.104,5.742,7.649V464c0,4.418,3.582,8,8,8h32c4.418,0,8-3.582,8-8v-29.17c0-3.544,2.371-6.552,5.742-7.649
	c4.743-1.543,9.322-3.442,13.708-5.672c3.161-1.607,6.963-1.156,9.47,1.352l20.619,20.619c3.124,3.124,8.19,3.124,11.314,0
	l22.628-22.628c3.124-3.124,3.124-8.19,0-11.314l-20.619-20.619c-2.508-2.508-2.959-6.31-1.352-9.471
	c2.23-4.386,4.129-8.964,5.672-13.707c1.096-3.371,4.104-5.742,7.649-5.742H272C276.418,360,280,356.418,280,352z M177.979,371.942
	c-50.51,37.342-107.263-19.411-69.921-69.921c0.541-0.731,1.231-1.422,1.963-1.963c50.51-37.342,107.263,19.411,69.921,69.921
	C179.401,370.71,178.71,371.401,177.979,371.942z"/>
<path style="fill:#AFB1B8;" d="M464,280v-16c0-4.418-3.582-8-8-8h-6.059c-2.727-6.585-2.929-7.072-5.657-13.657l4.284-4.284
	c3.124-3.124,3.124-8.19,0-11.314l-11.314-11.314c-3.124-3.124-8.189-3.124-11.314,0l-4.285,4.284
	c-6.585-2.727-7.072-2.929-13.657-5.657V208c0-4.418-3.582-8-8-8h-16c-4.418,0-8,3.582-8,8v6.059
	c-6.585,2.727-7.072,2.929-13.657,5.657l-4.285-4.284c-3.124-3.124-8.189-3.124-11.314,0l-11.314,11.314
	c-3.124,3.124-3.124,8.19,0,11.314l4.284,4.284c-2.727,6.585-2.929,7.072-5.657,13.657H328c-4.418,0-8,3.582-8,8v16
	c0,4.418,3.582,8,8,8h6.058c2.727,6.585,2.929,7.072,5.657,13.657l-4.284,4.284c-3.124,3.124-3.124,8.19,0,11.314l11.314,11.314
	c3.124,3.124,8.19,3.124,11.314,0l4.284-4.284c6.585,2.727,7.072,2.929,13.657,5.657V336c0,4.418,3.582,8,8,8h16
	c4.418,0,8-3.582,8-8v-6.059c6.585-2.727,7.072-2.929,13.657-5.657l4.284,4.284c3.124,3.124,8.19,3.124,11.314,0l11.314-11.314
	c3.124-3.124,3.124-8.19,0-11.314l-4.284-4.284c2.727-6.585,2.929-7.072,5.657-13.657H456C460.418,288,464,284.418,464,280z
	 M392,288c-8.82,0-16-7.176-16-16s7.18-16,16-16s16,7.176,16,16S400.82,288,392,288z"/>
<path style="fill:#F0CE37;" d="M328,120h-1.356C326.644,80,320,8,248,8V0h-48v8c-72,0-78.644,72-78.644,112H120h-16v32h240v-32H328z
	"/>
<g>
	<rect x="240" y="24" style="fill:#CFAC30;" width="16" height="72"/>
	<rect x="192" y="24" style="fill:#CFAC30;" width="16" height="72"/>
	<rect x="128" y="120" style="fill:#CFAC30;" width="192" height="16"/>
</g>
<g>
</g>
<g>
</g>
<g>
</g>
<g>
</g>
<g>
</g>
<g>
</g>
<g>
</g>
<g>
</g>
<g>
</g>
<g>
</g>
<g>
</g>
<g>
</g>
<g>
</g>
<g>
</g>
<g>
</g>
</svg>
