<?xml version="1.0" encoding="iso-8859-1"?>
<!-- Generator: Adobe Illustrator 19.0.0, SVG Export Plug-In . SVG Version: 6.00 Build 0)  -->
<svg version="1.1" id="Capa_1" xmlns="http://www.w3.org/2000/svg" xmlns:xlink="http://www.w3.org/1999/xlink" x="0px" y="0px"
	 viewBox="0 0 512 512" style="enable-background:new 0 0 512 512;" xml:space="preserve">
<g>
	<g>
		<path d="M205.07,58.93C203.21,57.07,200.63,56,198,56s-5.21,1.069-7.07,2.93C189.07,60.79,188,63.37,188,66s1.07,5.21,2.93,7.069
			C192.79,74.93,195.37,76,198,76s5.21-1.07,7.07-2.931C206.93,71.21,208,68.63,208,66S206.93,60.79,205.07,58.93z"/>
	</g>
</g>
<g>
	<g>
		<path d="M161.048,56h-40.173c-5.523,0-10,4.478-10,10s4.477,10,10,10h40.173c5.523,0,10-4.478,10-10
			C171.048,60.478,166.571,56,161.048,56z"/>
	</g>
</g>
<g>
	<g>
		<path d="M169.069,112h-48.194c-5.523,0-10,4.478-10,10c0,5.522,4.477,10,10,10h48.194c5.523,0,10-4.478,10-10
			C179.069,116.478,174.592,112,169.069,112z"/>
	</g>
</g>
<g>
	<g>
		<path d="M508.14,208.118c0.001-0.003,0.003-0.005,0.004-0.008l-66-51.397c-0.047-0.036-0.097-0.065-0.144-0.101V146
			c0-5.522-4.477-10-10-10s-10,4.478-10,10v135.667c0,0.061,0.008,0.12,0.009,0.181l-82.745,82.745l-9.581-8.703
			c-14.974-13.604-33.221-22.673-52.776-26.462l25.964-25.964c3.905-3.905,3.905-10.237,0-14.143l-33.59-33.591l146.384-62.408
			c3.055-1.303,5.265-4.038,5.896-7.299c0.631-3.261-0.398-6.623-2.747-8.972l-47.799-47.8c4.046-6.603,6.215-14.207,6.215-22.147
			c0-11.354-4.421-22.027-12.449-30.056c-8.028-8.028-18.702-12.449-30.056-12.449c-7.94,0-15.544,2.169-22.147,6.215l-47.8-47.8
			c-2.35-2.35-5.71-3.382-8.974-2.746c-3.262,0.632-5.996,2.843-7.298,5.899l-67.391,158.275l-36.272,36.271
			c-10.192,10.192-15.806,23.744-15.806,38.158s5.614,27.965,15.806,38.157c10.192,10.192,23.744,15.806,38.158,15.806
			s27.965-5.613,38.157-15.806l3.814-3.814l34.254,34.254c-1.074-0.031-2.15-0.053-3.228-0.053
			c-27.305,0-53.473,10.111-73.684,28.472l-9.581,8.703l-82.745-82.745c0.001-0.061,0.009-0.12,0.009-0.182V20h111.987
			c5.523,0,10-4.478,10-10s-4.477-10-10-10H80c-5.523,0-10,4.478-10,10v145.014c-0.086,0.065-0.177,0.121-0.261,0.189l-66,53
			c0.001,0.002,0.001,0.003,0.002,0.005C1.462,210.041,0,212.848,0,216v245c0,28.121,22.878,51,51,51h410c28.122,0,51-22.879,51-51
			V216C512,212.794,510.486,209.948,508.14,208.118z M442,181.949l44.924,34.984L442,261.857V181.949z M334.726,84.601
			c6.011,0,11.663,2.341,15.914,6.592c4.25,4.25,6.591,9.901,6.591,15.913c0,2.48-0.42,4.891-1.187,7.176L327.55,85.787
			C329.835,85.02,332.246,84.601,334.726,84.601z M261.108,47.629l43.55,43.55c0.004,0.004,0.008,0.009,0.012,0.014
			c0.004,0.005,0.009,0.008,0.014,0.012l45.955,45.955c0,0.001,0.001,0.001,0.001,0.002s0.001,0.001,0.002,0.001l43.566,43.566
			l-21.23,9.051L252.065,68.867L261.108,47.629z M243.618,88.706l109.528,109.528l-99.104,42.252l-52.637-52.637L243.618,88.706z
			 M207.018,282.888c-6.414,6.415-14.943,9.948-24.015,9.948c-9.072,0-17.601-3.533-24.016-9.948
			c-6.415-6.414-9.948-14.943-9.948-24.015s3.533-17.601,9.948-24.016l30.571-30.571l48.029,48.034L207.018,282.888z
			 M239.116,279.074l12.612-12.611l29.93,29.93l-12.612,12.611L239.116,279.074z M70,180.643v81.215l-45.043-45.043L70,180.643z
			 M37.331,487.599c-0.283,0.257-0.544,0.53-0.791,0.81C26.713,483.204,20,472.874,20,461V240.143l137.915,137.914L37.331,487.599z
			 M62.23,492l33.024-30h73.403c5.523,0,10-4.478,10-10c0-5.522-4.477-10-10-10H117.27l78.495-71.308
			c34.34-31.195,86.131-31.195,120.471,0L449.77,492H62.23z M492,461c0,11.874-6.713,22.204-16.54,27.409
			c-0.247-0.281-0.508-0.553-0.791-0.81L354.086,378.057L492,240.143V461z"/>
	</g>
</g>
<g>
	<g>
		<path d="M439.467,3.324c-3.905-3.904-10.237-3.904-14.142,0L384.929,43.72c-3.905,3.905-3.905,10.237,0,14.143
			c1.953,1.952,4.512,2.929,7.071,2.929c2.559,0,5.119-0.977,7.071-2.929l40.396-40.396C443.372,13.562,443.372,7.23,439.467,3.324z
			"/>
	</g>
</g>
<g>
	<g>
		<path d="M354.412,0c-5.523,0-10,4.478-10,10v20.087c0,5.522,4.477,10,10,10c5.523,0,10-4.478,10-10V10
			C364.412,4.478,359.935,0,354.412,0z"/>
	</g>
</g>
<g>
	<g>
		<path d="M432.688,77.521h-20.759c-5.523,0-10,4.478-10,10c0,5.522,4.477,10,10,10h20.759c5.523,0,10-4.478,10-10
			C442.688,81.999,438.211,77.521,432.688,77.521z"/>
	</g>
</g>
<g>
	<g>
		<path d="M216.73,444.93c-1.87-1.86-4.44-2.93-7.07-2.93c-2.64,0-5.21,1.069-7.08,2.93c-1.86,1.86-2.92,4.44-2.92,7.07
			s1.06,5.21,2.92,7.069c1.87,1.861,4.45,2.931,7.08,2.931s5.2-1.07,7.07-2.931c1.86-1.859,2.93-4.439,2.93-7.069
			S218.59,446.79,216.73,444.93z"/>
	</g>
</g>
<g>
</g>
<g>
</g>
<g>
</g>
<g>
</g>
<g>
</g>
<g>
</g>
<g>
</g>
<g>
</g>
<g>
</g>
<g>
</g>
<g>
</g>
<g>
</g>
<g>
</g>
<g>
</g>
<g>
</g>
</svg>
